<svg width="208" height="222" viewBox="0 0 208 222" fill="none" xmlns="http://www.w3.org/2000/svg">
<path d="M44 218H177.333M84 218C157.333 184.562 94.6667 132.4 124 84.25M124 84.25C123.388 65.3397 128.501 46.6871 138.667 30.75C150.667 17.375 168 5.3375 204 4C202.667 34.7625 194.667 52.15 181.333 65.525C168 76.225 149.333 82.9125 124 84.25ZM77.3333 76.225C92 86.925 101.333 105.65 108 125.713C81.3333 131.063 61.3333 131.063 44 121.7C28 113.675 13.3333 96.2875 4 65.525C41.3333 58.8375 62.6667 65.525 77.3333 76.225Z" stroke="#47624F" stroke-width="8" stroke-linecap="round" stroke-linejoin="round"/>
</svg>
