<svg width="647" height="171" viewBox="0 0 647 171" fill="none" xmlns="http://www.w3.org/2000/svg">
<path d="M32.768 46.968C37.0347 46.968 40.2773 47.48 42.496 48.504C44.7147 49.4427 46.6773 50.5093 48.384 51.704C49.408 52.3013 50.2187 52.7707 50.816 53.112C51.4987 53.368 52.1387 53.496 52.736 53.496C53.5893 53.496 54.1867 53.0267 54.528 52.088C54.9547 51.1493 55.296 49.7413 55.552 47.864H58.496C58.4107 49.3147 58.2827 51.064 58.112 53.112C58.0267 55.0747 57.9413 57.72 57.856 61.048C57.856 64.2907 57.856 68.6 57.856 73.976H54.912C54.656 69.88 53.76 65.9547 52.224 62.2C50.688 58.4453 48.4267 55.3733 45.44 52.984C42.5387 50.5947 38.6987 49.4 33.92 49.4C29.3973 49.4 25.6427 50.7653 22.656 53.496C19.7547 56.2267 18.304 59.8107 18.304 64.248C18.304 68.088 19.2853 71.3307 21.248 73.976C23.2107 76.536 25.8133 78.8827 29.056 81.016C32.384 83.064 35.968 85.2827 39.808 87.672C44.2453 90.4027 48.1707 93.1333 51.584 95.864C55.0827 98.5093 57.8133 101.453 59.776 104.696C61.824 107.939 62.848 111.864 62.848 116.472C62.848 121.933 61.6107 126.456 59.136 130.04C56.6613 133.624 53.376 136.312 49.28 138.104C45.184 139.896 40.6613 140.792 35.712 140.792C31.1893 140.792 27.6053 140.28 24.96 139.256C22.3147 138.232 20.0533 137.165 18.176 136.056C16.2987 134.861 14.848 134.264 13.824 134.264C12.9707 134.264 12.3307 134.733 11.904 135.672C11.5627 136.611 11.264 138.019 11.008 139.896H8.064C8.23467 138.104 8.32 136.013 8.32 133.624C8.40533 131.149 8.448 127.949 8.448 124.024C8.53333 120.099 8.576 115.149 8.576 109.176H11.52C11.8613 114.296 12.8 119.075 14.336 123.512C15.9573 127.949 18.3893 131.533 21.632 134.264C24.96 136.909 29.3547 138.232 34.816 138.232C37.632 138.232 40.2773 137.677 42.752 136.568C45.312 135.373 47.4027 133.539 49.024 131.064C50.6453 128.504 51.456 125.219 51.456 121.208C51.456 117.709 50.6027 114.68 48.896 112.12C47.2747 109.475 44.9707 107.043 41.984 104.824C38.9973 102.52 35.4987 100.173 31.488 97.784C27.4773 95.3093 23.7227 92.792 20.224 90.232C16.7253 87.672 13.9093 84.728 11.776 81.4C9.728 77.9867 8.704 73.8907 8.704 69.112C8.704 64.0773 9.81333 59.9387 12.032 56.696C14.336 53.368 17.3227 50.936 20.992 49.4C24.6613 47.7787 28.5867 46.968 32.768 46.968ZM74.501 48.376C76.293 48.4613 78.6397 48.5467 81.541 48.632C84.4423 48.7173 87.301 48.76 90.117 48.76C94.1277 48.76 97.9677 48.7173 101.637 48.632C105.306 48.5467 107.909 48.504 109.445 48.504C119.77 48.504 127.493 50.8507 132.613 55.544C137.733 60.2373 140.293 66.296 140.293 73.72C140.293 76.792 139.781 80.0347 138.757 83.448C137.733 86.776 135.941 89.8907 133.381 92.792C130.906 95.608 127.493 97.912 123.141 99.704C118.789 101.496 113.285 102.392 106.629 102.392H94.341V99.832H105.349C111.408 99.832 116.016 98.68 119.173 96.376C122.416 94.072 124.592 91.0427 125.701 87.288C126.896 83.5333 127.493 79.48 127.493 75.128C127.493 67.0213 125.872 60.9627 122.629 56.952C119.472 52.9413 114.01 50.936 106.245 50.936C102.32 50.936 99.7597 51.6613 98.565 53.112C97.3703 54.5627 96.773 57.5067 96.773 61.944V125.432C96.773 128.504 97.0717 130.808 97.669 132.344C98.3517 133.88 99.6317 134.904 101.509 135.416C103.386 135.928 106.117 136.269 109.701 136.44V139C107.482 138.829 104.666 138.744 101.253 138.744C97.8397 138.659 94.3837 138.616 90.885 138.616C87.557 138.616 84.4423 138.659 81.541 138.744C78.6397 138.744 76.293 138.829 74.501 139V136.44C77.4023 136.269 79.5783 135.928 81.029 135.416C82.565 134.904 83.589 133.88 84.101 132.344C84.613 130.808 84.869 128.504 84.869 125.432V61.944C84.869 58.7867 84.613 56.4827 84.101 55.032C83.589 53.496 82.565 52.472 81.029 51.96C79.5783 51.3627 77.4023 51.0213 74.501 50.936V48.376ZM283.863 46.584C289.495 46.584 294.103 47.4373 297.687 49.144C301.356 50.7653 304.599 52.6853 307.415 54.904C309.122 56.184 310.402 56.3547 311.255 55.416C312.194 54.392 312.834 52.0453 313.175 48.376H316.119C315.948 51.5333 315.82 55.3733 315.735 59.896C315.65 64.4187 315.607 70.392 315.607 77.816H312.663C312.066 74.1467 311.511 71.2453 310.999 69.112C310.487 66.8933 309.847 65.016 309.079 63.48C308.396 61.944 307.458 60.408 306.263 58.872C303.618 55.3733 300.29 52.856 296.279 51.32C292.268 49.6987 288.044 48.888 283.607 48.888C279.426 48.888 275.628 49.9547 272.215 52.088C268.887 54.136 265.986 57.1227 263.511 61.048C261.122 64.9733 259.244 69.7093 257.879 75.256C256.599 80.8027 255.959 87.032 255.959 93.944C255.959 101.112 256.684 107.469 258.135 113.016C259.586 118.477 261.591 123.085 264.151 126.84C266.796 130.595 269.868 133.453 273.367 135.416C276.951 137.293 280.791 138.232 284.887 138.232C288.727 138.232 292.738 137.464 296.919 135.928C301.1 134.392 304.386 131.917 306.775 128.504C308.652 126.029 309.932 123.341 310.615 120.44C311.383 117.539 312.066 113.485 312.663 108.28H315.607C315.607 116.045 315.65 122.317 315.735 127.096C315.82 131.789 315.948 135.757 316.119 139H313.175C312.834 135.331 312.236 133.027 311.383 132.088C310.615 131.149 309.292 131.277 307.415 132.472C304.258 134.691 300.887 136.653 297.303 138.36C293.804 139.981 289.282 140.792 283.735 140.792C275.628 140.792 268.503 138.957 262.359 135.288C256.3 131.619 251.564 126.328 248.151 119.416C244.823 112.504 243.159 104.184 243.159 94.456C243.159 84.8987 244.908 76.536 248.407 69.368C251.906 62.2 256.684 56.6107 262.743 52.6C268.887 48.5893 275.927 46.584 283.863 46.584ZM393.748 48.376C393.407 51.3627 393.151 54.264 392.98 57.08C392.895 59.896 392.852 62.0293 392.852 63.48C392.852 65.016 392.895 66.5093 392.98 67.96C393.065 69.3253 393.151 70.4773 393.236 71.416H390.292C389.78 66.3813 389.055 62.4133 388.116 59.512C387.177 56.5253 385.556 54.4347 383.252 53.24C381.033 51.96 377.663 51.32 373.14 51.32H362.516C359.615 51.32 357.396 51.576 355.86 52.088C354.409 52.5147 353.428 53.496 352.916 55.032C352.404 56.4827 352.148 58.7867 352.148 61.944V125.432C352.148 128.504 352.404 130.808 352.916 132.344C353.428 133.88 354.409 134.904 355.86 135.416C357.396 135.843 359.615 136.056 362.516 136.056H371.86C377.236 136.056 381.289 135.331 384.02 133.88C386.836 132.429 388.841 130.083 390.036 126.84C391.316 123.512 392.255 119.032 392.852 113.4H395.796C395.54 115.704 395.412 118.776 395.412 122.616C395.412 124.237 395.455 126.584 395.54 129.656C395.711 132.643 395.967 135.757 396.308 139C391.956 138.829 387.049 138.744 381.588 138.744C376.127 138.659 371.263 138.616 366.996 138.616C365.119 138.616 362.687 138.616 359.7 138.616C356.799 138.616 353.641 138.659 350.228 138.744C346.815 138.744 343.359 138.787 339.86 138.872C336.361 138.872 333.033 138.915 329.876 139V136.44C332.777 136.269 334.953 135.928 336.404 135.416C337.94 134.904 338.964 133.88 339.476 132.344C339.988 130.808 340.244 128.504 340.244 125.432V61.944C340.244 58.7867 339.988 56.4827 339.476 55.032C338.964 53.496 337.94 52.472 336.404 51.96C334.953 51.3627 332.777 51.0213 329.876 50.936V48.376C333.033 48.4613 336.361 48.5467 339.86 48.632C343.359 48.632 346.815 48.6747 350.228 48.76C353.641 48.76 356.799 48.76 359.7 48.76C362.687 48.76 365.119 48.76 366.996 48.76C370.921 48.76 375.359 48.76 380.308 48.76C385.343 48.6747 389.823 48.5467 393.748 48.376ZM371.732 92.152C371.732 92.152 371.732 92.5787 371.732 93.432C371.732 94.2853 371.732 94.712 371.732 94.712H348.308C348.308 94.712 348.308 94.2853 348.308 93.432C348.308 92.5787 348.308 92.152 348.308 92.152H371.732ZM375.444 75.256C375.103 80.12 374.932 83.832 374.932 86.392C375.017 88.952 375.06 91.2987 375.06 93.432C375.06 95.5653 375.103 97.912 375.188 100.472C375.273 103.032 375.487 106.744 375.828 111.608H372.884C372.543 108.877 372.116 106.232 371.604 103.672C371.177 101.027 370.153 98.8933 368.532 97.272C366.996 95.5653 364.351 94.712 360.596 94.712V92.152C363.412 92.152 365.545 91.5973 366.996 90.488C368.532 89.2933 369.641 87.8 370.324 86.008C371.007 84.216 371.476 82.3813 371.732 80.504C371.988 78.5413 372.244 76.792 372.5 75.256H375.444ZM478.276 48.376C477.935 51.6187 477.679 54.776 477.508 57.848C477.423 60.8347 477.38 63.1387 477.38 64.76C477.38 66.808 477.423 68.728 477.508 70.52C477.593 72.312 477.679 73.8907 477.764 75.256H474.82C474.223 69.2827 473.412 64.5893 472.388 61.176C471.364 57.6773 469.572 55.16 467.012 53.624C464.452 52.088 460.484 51.32 455.108 51.32H448.196V124.152C448.196 127.565 448.495 130.125 449.092 131.832C449.775 133.539 451.055 134.691 452.932 135.288C454.809 135.885 457.54 136.269 461.124 136.44V139C458.905 138.829 456.089 138.744 452.676 138.744C449.263 138.659 445.807 138.616 442.308 138.616C438.468 138.616 434.841 138.659 431.428 138.744C428.1 138.744 425.412 138.829 423.364 139V136.44C426.948 136.269 429.679 135.885 431.556 135.288C433.433 134.691 434.671 133.539 435.268 131.832C435.951 130.125 436.292 127.565 436.292 124.152V51.32H429.38C424.089 51.32 420.121 52.088 417.476 53.624C414.916 55.16 413.124 57.6773 412.1 61.176C411.076 64.5893 410.265 69.2827 409.668 75.256H406.724C406.895 73.8907 406.98 72.312 406.98 70.52C407.065 68.728 407.108 66.808 407.108 64.76C407.108 63.1387 407.023 60.8347 406.852 57.848C406.767 54.776 406.553 51.6187 406.212 48.376C409.796 48.4613 413.679 48.5467 417.86 48.632C422.127 48.7173 426.393 48.76 430.66 48.76C434.927 48.76 438.809 48.76 442.308 48.76C445.807 48.76 449.647 48.76 453.828 48.76C458.095 48.76 462.361 48.7173 466.628 48.632C470.895 48.5467 474.777 48.4613 478.276 48.376ZM487.376 48.376C489.168 48.4613 491.515 48.5467 494.416 48.632C497.317 48.7173 500.176 48.76 502.992 48.76C507.003 48.76 510.843 48.7173 514.512 48.632C518.181 48.5467 520.784 48.504 522.32 48.504C529.232 48.504 534.949 49.4853 539.472 51.448C544.08 53.4107 547.493 56.0987 549.712 59.512C552.016 62.84 553.168 66.5947 553.168 70.776C553.168 73.336 552.656 76.0667 551.632 78.968C550.608 81.8693 548.816 84.6 546.256 87.16C543.781 89.72 540.368 91.8533 536.016 93.56C531.664 95.1813 526.16 95.992 519.504 95.992H507.216V93.432H518.224C524.283 93.432 528.891 92.4933 532.048 90.616C535.291 88.6533 537.467 86.0933 538.576 82.936C539.771 79.6933 540.368 76.1093 540.368 72.184C540.368 65.4427 538.747 60.2373 535.504 56.568C532.347 52.8133 526.885 50.936 519.12 50.936C515.195 50.936 512.635 51.6613 511.44 53.112C510.245 54.5627 509.648 57.5067 509.648 61.944V125.432C509.648 128.504 509.904 130.808 510.416 132.344C510.928 133.88 511.909 134.904 513.36 135.416C514.896 135.928 517.115 136.269 520.016 136.44V139C518.053 138.829 515.579 138.744 512.592 138.744C509.691 138.659 506.747 138.616 503.76 138.616C500.432 138.616 497.317 138.659 494.416 138.744C491.515 138.744 489.168 138.829 487.376 139V136.44C490.277 136.269 492.453 135.928 493.904 135.416C495.44 134.904 496.464 133.88 496.976 132.344C497.488 130.808 497.744 128.504 497.744 125.432V61.944C497.744 58.7867 497.488 56.4827 496.976 55.032C496.464 53.496 495.44 52.472 493.904 51.96C492.453 51.3627 490.277 51.0213 487.376 50.936V48.376ZM507.728 93.816C512.336 93.9867 515.963 94.2 518.608 94.456C521.253 94.6267 523.387 94.7973 525.008 94.968C526.715 95.1387 528.336 95.352 529.872 95.608C535.589 96.5467 539.685 98.296 542.16 100.856C544.72 103.331 546.597 107.213 547.792 112.504L550.992 125.56C551.845 129.315 552.699 132.045 553.552 133.752C554.491 135.373 555.899 136.141 557.776 136.056C559.227 135.971 560.421 135.501 561.36 134.648C562.384 133.795 563.451 132.643 564.56 131.192L566.48 132.6C564.688 135.245 562.811 137.293 560.848 138.744C558.971 140.109 556.283 140.792 552.784 140.792C549.627 140.792 546.853 139.853 544.464 137.976C542.075 136.099 540.283 132.429 539.088 126.968L536.272 114.168C535.504 110.499 534.608 107.341 533.584 104.696C532.645 101.965 531.28 99.832 529.488 98.296C527.781 96.76 525.221 95.992 521.808 95.992H507.984L507.728 93.816ZM606.344 47.736L637.576 128.248C638.856 131.491 640.307 133.667 641.928 134.776C643.549 135.8 645.043 136.355 646.408 136.44V139C644.701 138.829 642.611 138.744 640.136 138.744C637.661 138.659 635.187 138.616 632.712 138.616C629.384 138.616 626.269 138.659 623.368 138.744C620.467 138.744 618.12 138.829 616.328 139V136.44C620.68 136.269 623.453 135.544 624.648 134.264C625.843 132.899 625.587 130.04 623.88 125.688L600.072 62.072L602.12 60.408L579.848 118.264C578.483 121.677 577.672 124.579 577.416 126.968C577.16 129.272 577.373 131.107 578.056 132.472C578.824 133.837 580.061 134.819 581.768 135.416C583.56 136.013 585.779 136.355 588.424 136.44V139C586.035 138.829 583.517 138.744 580.872 138.744C578.312 138.659 575.923 138.616 573.704 138.616C571.571 138.616 569.736 138.659 568.2 138.744C566.749 138.744 565.384 138.829 564.104 139V136.44C565.811 136.013 567.56 135.032 569.352 133.496C571.144 131.875 572.765 129.144 574.216 125.304L604.296 47.736C604.637 47.736 604.979 47.736 605.32 47.736C605.661 47.736 606.003 47.736 606.344 47.736ZM621.96 102.136V104.696H583.816L585.096 102.136H621.96Z" fill="#47624F"/>
<path d="M169.4 139H234.067M188.8 139C224.367 122.75 193.973 97.4 208.2 74M208.2 74C207.903 64.81 210.383 55.7451 215.313 48C221.133 41.5 229.54 35.65 247 35C246.353 49.95 242.473 58.4 236.007 64.9C229.54 70.1 220.487 73.35 208.2 74ZM185.567 70.1C192.68 75.3 197.207 84.4 200.44 94.15C187.507 96.75 177.807 96.75 169.4 92.2C161.64 88.3 154.527 79.85 150 64.9C168.107 61.65 178.453 64.9 185.567 70.1Z" stroke="#47624F" stroke-width="5" stroke-linecap="round" stroke-linejoin="round"/>
</svg>
